<?xml version="1.0" encoding="UTF-8"?>
<svg width="300px" height="300px" viewBox="0 0 300 300" version="1.1" xmlns="http://www.w3.org/2000/svg" xmlns:xlink="http://www.w3.org/1999/xlink">
    <title>assets-file-light</title>
    <g id="assets-file-light" stroke="none" stroke-width="1" fill="none" fill-rule="evenodd">
        <path d="M141.971326,48.9197802 C148.030475,46.8650634 154.873472,47.121834 161.064143,50.1771127 C165.994458,52.6103687 169.985146,56.6010567 172.418402,61.5313718 L172.418402,61.5313718 L189.350245,95.8390338 L227.210998,101.340523 C234.042809,102.333243 239.825473,106.001121 243.652005,111.128772 C247.478537,116.256422 249.348936,122.843846 248.356216,129.675656 C247.565603,135.116582 245.003423,140.145143 241.066332,143.982858 L241.066332,143.982858 L213.670034,170.687648 L220.137423,208.395418 C221.304436,215.199623 219.603018,221.832701 215.908796,227.05648 C212.214574,232.280259 206.527547,236.09474 199.723341,237.261752 C194.304401,238.191173 188.730199,237.308306 183.863687,234.74983 L183.863687,234.74983 L150,216.946636 L116.136313,234.74983 C110.025756,237.96234 103.191557,238.393929 97.0818709,236.494752 C90.9721843,234.595574 85.5870096,230.36563 82.3744995,224.255072 C79.8160227,219.38856 78.9331559,213.814358 79.8625769,208.395418 L79.8625769,208.395418 L86.3299656,170.687648 L58.9336675,143.982858 C53.9901228,139.164093 51.4677735,132.797752 51.3860017,126.400217 C51.3042299,120.002681 53.6630356,113.573951 58.4818007,108.630406 C62.3195158,104.693315 67.3480761,102.131136 72.7890019,101.340523 L72.7890019,101.340523 L110.649755,95.8390338 L127.581598,61.5313718 C130.636877,55.3407011 135.912178,50.974497 141.971326,48.9197802 Z" id="Star" stroke="#3778B7" stroke-width="30" fill="#CFF0F9"></path>
    </g>
</svg>