<?xml version="1.0" encoding="UTF-8"?>
<svg width="300px" height="300px" viewBox="0 0 300 300" version="1.1" xmlns="http://www.w3.org/2000/svg" xmlns:xlink="http://www.w3.org/1999/xlink">
    <title>assets-file-light</title>
    <defs>
        <path d="M145.346589,202.446443 L109.156196,221.472858 C104.26775,224.042866 98.2214789,222.163401 95.6514708,217.274955 C94.6280801,215.328351 94.2749334,213.09867 94.6467018,210.931094 L101.558452,170.632499 C102.114831,167.388559 101.039346,164.078557 98.6824854,161.781185 L69.4038429,133.241562 C65.4490071,129.38655 65.368084,123.055417 69.2230962,119.100582 C70.7581822,117.525745 72.7696063,116.500874 74.9459766,116.184628 L115.408065,110.305143 C118.665167,109.831858 121.480823,107.786164 122.937443,104.83473 L141.032639,68.1698575 C143.476862,63.2173209 149.473121,61.1839309 154.425657,63.6281539 C156.397783,64.6014562 157.994058,66.1977315 158.967361,68.1698575 L177.062557,104.83473 C178.519177,107.786164 181.334833,109.831858 184.591935,110.305143 L225.054023,116.184628 C230.519472,116.978805 234.306287,122.053233 233.51211,127.518682 C233.195865,129.695052 232.170993,131.706476 230.596157,133.241562 L201.317515,161.781185 C198.960654,164.078557 197.885169,167.388559 198.441548,170.632499 L205.353298,210.931094 C206.286908,216.374458 202.63103,221.544017 197.187666,222.477627 C195.020089,222.849396 192.790408,222.496249 190.843804,221.472858 L154.653411,202.446443 C151.740171,200.914862 148.259829,200.914862 145.346589,202.446443 Z" id="path-1"></path>
    </defs>
    <g id="assets-file-light" stroke="none" stroke-width="1" fill="none" fill-rule="evenodd">
        <g id="Star">
            <use fill="#D6FFD9" fill-rule="evenodd" xlink:href="#path-1"></use>
            <path stroke="#428226" stroke-width="30" d="M141.971326,48.9197802 C148.030475,46.8650634 154.873472,47.121834 161.064143,50.1771127 C165.994458,52.6103687 169.985146,56.6010567 172.418402,61.5313718 L172.418402,61.5313718 L189.350245,95.8390338 L227.210998,101.340523 C234.042809,102.333243 239.825473,106.001121 243.652005,111.128772 C247.478537,116.256422 249.348936,122.843846 248.356216,129.675656 C247.565603,135.116582 245.003423,140.145143 241.066332,143.982858 L241.066332,143.982858 L213.670034,170.687648 L220.137423,208.395418 C221.304436,215.199623 219.603018,221.832701 215.908796,227.05648 C212.214574,232.280259 206.527547,236.09474 199.723341,237.261752 C194.304401,238.191173 188.730199,237.308306 183.863687,234.74983 L183.863687,234.74983 L150,216.946636 L116.136313,234.74983 C110.025756,237.96234 103.191557,238.393929 97.0818709,236.494752 C90.9721843,234.595574 85.5870096,230.36563 82.3744995,224.255072 C79.8160227,219.38856 78.9331559,213.814358 79.8625769,208.395418 L79.8625769,208.395418 L86.3299656,170.687648 L58.9336675,143.982858 C53.9901228,139.164093 51.4677735,132.797752 51.3860017,126.400217 C51.3042299,120.002681 53.6630356,113.573951 58.4818007,108.630406 C62.3195158,104.693315 67.3480761,102.131136 72.7890019,101.340523 L72.7890019,101.340523 L110.649755,95.8390338 L127.581598,61.5313718 C130.636877,55.3407011 135.912178,50.974497 141.971326,48.9197802 Z"></path>
            <path stroke="#FFFFFF" stroke-width="20" d="M150,72.5955146 L168.095196,109.260387 C171.008436,115.163256 176.639748,119.254644 183.153951,120.201213 L183.153951,120.201213 L223.61604,126.080699 L194.337398,154.620321 C189.623676,159.215065 187.472706,165.835069 188.585465,172.32295 L188.585465,172.32295 L195.497215,212.621544 L159.306823,193.595129 C153.480342,190.531967 146.519658,190.531967 140.693177,193.595129 L140.693177,193.595129 L104.502785,212.621544 L111.414535,172.32295 C112.527294,165.835069 110.376324,159.215065 105.662602,154.620321 L105.662602,154.620321 L76.3839598,126.080699 L116.846049,120.201213 C123.360252,119.254644 128.991564,115.163256 131.904804,109.260387 L131.904804,109.260387 L150,72.5955146 L150,72.5955146 Z" stroke-linejoin="square"></path>
        </g>
    </g>
</svg>