<?xml version="1.0" encoding="UTF-8"?>
<svg width="300px" height="300px" viewBox="0 0 300 300" version="1.1" xmlns="http://www.w3.org/2000/svg" xmlns:xlink="http://www.w3.org/1999/xlink">
    <title>code-file-dark</title>
    <g id="code-file-dark" stroke="none" stroke-width="1" fill="none" fill-rule="evenodd">
        <path d="M150,35 C161.045695,35 171.045695,39.4771525 178.284271,46.7157288 C185.522847,53.954305 190,63.954305 190,75.0000377 L189.999986,80.717836 L194.951905,77.8589838 C204.517758,72.3361364 215.416588,71.2134642 225.304667,73.8629669 C235.192746,76.5124697 244.070074,82.9341475 249.592921,92.5 C255.115769,102.065852 256.238441,112.964683 253.588938,122.852762 C250.939436,132.740841 244.517758,141.618169 234.951684,147.141144 L229.999805,150 L234.951905,152.858984 C244.517758,158.381831 250.939436,167.259159 253.588938,177.147238 C256.238441,187.035317 255.115769,197.934148 249.592921,207.5 C244.070074,217.065852 235.192746,223.48753 225.304667,226.137033 C215.416588,228.786536 204.517758,227.663864 194.951826,222.14097 L189.999986,219.281984 L190,225 C190,236.045695 185.522847,246.045695 178.284271,253.284271 C171.045695,260.522847 161.045695,265 150,265 C138.954305,265 128.954305,260.522847 121.715729,253.284271 C114.477153,246.045695 110,236.045695 110,225.000038 L109.999986,219.281803 L105.048095,222.141016 C95.4822422,227.663864 84.583412,228.786536 74.6953329,226.137033 C64.8072539,223.48753 55.9299261,217.065852 50.4070786,207.5 C44.8842311,197.934148 43.7615589,187.035317 46.4110617,177.147238 C49.0605645,167.259159 55.4822422,158.381831 65.0480784,152.858993 L69.9999856,150 L65.0480947,147.141016 C55.4822422,141.618169 49.0605645,132.740841 46.4110617,122.852762 C43.7615589,112.964683 44.8842311,102.065852 50.4070786,92.5 C55.9299261,82.9341475 64.8072539,76.5124697 74.6953329,73.8629669 C84.583412,71.2134642 95.4822422,72.3361364 105.048207,77.8590486 L109.999986,80.7180164 L110,75 C110,63.954305 114.477153,53.954305 121.715729,46.7157288 C128.954305,39.4771525 138.954305,35 150,35 Z" id="Combined-Shape" stroke="#819DC2" stroke-width="30" fill="#203239"></path>
    </g>
</svg>