<?xml version="1.0" encoding="UTF-8"?>
<svg width="300px" height="300px" viewBox="0 0 300 300" version="1.1" xmlns="http://www.w3.org/2000/svg" xmlns:xlink="http://www.w3.org/1999/xlink">
    <title>code-file-dark</title>
    <g id="code-file-dark" stroke="none" stroke-width="1" fill="none" fill-rule="evenodd">
        <path d="M150,35 C159.664983,35 168.414983,38.9175084 174.748737,45.2512627 C181.082492,51.5850169 185,60.3350169 185,70.000123 L185,70.000123 L184.999841,89.3778014 L201.782032,79.6891109 C210.152153,74.8566193 219.68863,73.8742811 228.340699,76.1925961 C236.992768,78.510911 244.76043,84.1298791 249.592921,92.5 C254.425413,100.870121 255.407751,110.406597 253.089436,119.058667 C250.771121,127.710736 245.152153,135.478398 236.781731,140.311063 L236.781731,140.311063 L219.999841,149.999573 L236.782032,159.689111 C245.152153,164.521602 250.771121,172.289264 253.089436,180.941333 C255.407751,189.593403 254.425413,199.129879 249.592921,207.5 C244.76043,215.870121 236.992768,221.489089 228.340699,223.807404 C219.68863,226.125719 210.152153,225.143381 201.782082,220.310918 L201.782082,220.310918 L184.999841,210.621771 L185,230 C185,239.664983 181.082492,248.414983 174.748737,254.748737 C168.414983,261.082492 159.664983,265 150,265 C140.335017,265 131.585017,261.082492 125.251263,254.748737 C118.917508,248.414983 115,239.664983 115,230.000123 L115,230.000123 L114.999841,210.621771 L98.2179677,220.310889 C89.8478468,225.143381 80.3113703,226.125719 71.6593011,223.807404 C63.007232,221.489089 55.2395701,215.870121 50.4070786,207.5 C45.574587,199.129879 44.5922488,189.593403 46.9105638,180.941333 C49.2288787,172.289264 54.8478468,164.521602 63.2179145,159.689142 L63.2179145,159.689142 L79.9998412,150 L63.2179677,140.310889 C54.8478468,135.478398 49.2288787,127.710736 46.9105638,119.058667 C44.5922488,110.406597 45.574587,100.870121 50.4070786,92.5 C55.2395701,84.1298791 63.007232,78.510911 71.6593011,76.1925961 C80.3113703,73.8742811 89.8478468,74.8566193 98.2177769,79.6890007 L98.2177769,79.6890007 L114.999841,89.3778014 L115,70 C115,60.3350169 118.917508,51.5850169 125.251263,45.2512627 C131.585017,38.9175084 140.335017,35 150,35 L150,35 Z" id="Combined-Shape" stroke="#BA944F" stroke-width="30" fill="#393220"></path>
    </g>
</svg>