<?xml version="1.0" encoding="UTF-8"?>
<svg width="300px" height="300px" viewBox="0 0 300 300" version="1.1" xmlns="http://www.w3.org/2000/svg" xmlns:xlink="http://www.w3.org/1999/xlink">
    <title>document-file-light</title>
    <g id="document-file-light" stroke="none" stroke-width="1" fill="none" fill-rule="evenodd">
        <path d="M205.012124,85 C206.353507,85 207.638636,85.5389753 208.578728,86.4958116 L208.578728,86.4958116 L267.528728,146.495812 C268.484325,147.46843 268.962124,148.734215 268.962124,150 C268.962124,151.265785 268.484325,152.53157 267.528728,153.504188 L267.528728,153.504188 L208.578728,213.504188 C207.638636,214.461025 206.353507,215 205.012124,215 L205.012124,215 L50,215 C48.6192881,215 47.3692881,214.440356 46.4644661,213.535534 C45.5596441,212.630712 45,211.380712 45,210 L45,210 L45,90 C45,88.6192881 45.5596441,87.3692881 46.4644661,86.4644661 C47.3692881,85.5596441 48.6192881,85 50,85 L50,85 Z" id="Rectangle" stroke="#B07731" stroke-width="30" fill="#FFF5D6"></path>
    </g>
</svg>