<?xml version="1.0" encoding="UTF-8"?>
<svg width="300px" height="300px" viewBox="0 0 300 300" version="1.1" xmlns="http://www.w3.org/2000/svg" xmlns:xlink="http://www.w3.org/1999/xlink">
    <title>folder-light</title>
    <g id="folder-light" stroke="none" stroke-width="1" fill="none" fill-rule="evenodd" stroke-linejoin="round">
        <path d="M117.103392,44.764005 C142.237347,44.764005 151.640522,57.8983395 159.715822,70.7373606 C160.147639,71.4239119 160.50035,72.2726641 160.872835,73.1453992 L161.046515,73.5493997 C162.013439,75.7752322 163.205808,78.0185838 166.241041,78.0185838 L166.241041,78.0185838 L240,78.0185838 C246.903559,78.0185838 253.153559,80.8168041 257.67767,85.3409143 C262.20178,89.8650245 265,96.1150245 265,103.018584 L265,103.018584 L265,229.764005 C265,236.667564 262.20178,242.917564 257.67767,247.441674 C253.153559,251.965785 246.903559,254.764005 240,254.764005 L240,254.764005 L60,254.764005 C53.0964406,254.764005 46.8464406,251.965785 42.3223305,247.441674 C37.7982203,242.917564 35,236.667564 35,229.764005 L35,229.764005 L35,93.0177838 L35.0007644,91.4293889 C35.0204532,77.477363 36.9269544,65.3712042 44.2830823,57.0582629 C50.2303793,50.3373994 59.8290941,44.764005 78.0355828,44.764005 L78.0355828,44.764005 Z" id="Rectangle" stroke="#3778B7" stroke-width="30" fill="#CFF0F9"></path>
    </g>
</svg>