<?xml version="1.0" encoding="UTF-8"?>
<svg width="300px" height="300px" viewBox="0 0 300 300" version="1.1" xmlns="http://www.w3.org/2000/svg" xmlns:xlink="http://www.w3.org/1999/xlink">
    <title>folder-expanded-dark</title>
    <g id="folder-expanded-dark" stroke="none" stroke-width="1" fill="none" fill-rule="evenodd">
        <circle id="Oval" stroke="#BC9550" stroke-width="30" fill="#392A20" cx="150" cy="119" r="90"></circle>
        <path d="M113.691004,103.764005 C140.144166,103.764005 149.505599,112.543873 157.695597,120.393969 L158.195698,120.873342 C160.774202,123.344036 162.91687,126.118472 168.565896,126.118472 L168.565896,126.118472 L248.34171,126.118472 C255.112179,126.118472 260.629515,128.24878 264.354088,130.959812 C267.587313,133.313203 269.801766,136.236496 271.135656,139.328823 C272.721454,143.005144 273.175208,147.036051 272.178993,151.27354 L272.178993,151.27354 L252.148578,236.474628 C250.919342,241.70329 247.513776,246.771871 242.264706,250.273451 C238.095291,253.054809 232.831962,254.764005 227.469679,254.764005 L227.469679,254.764005 L74.5303215,254.764005 C69.1680379,254.764005 63.9047086,253.054809 59.7352936,250.273451 C54.4862242,246.771871 51.0806577,241.70329 49.8514216,236.474628 L49.8514216,236.474628 L28.2394697,144.54633 L28.0726427,143.835628 C26.742549,138.153008 25.944029,132.697914 26.5762986,127.95013 C27.3851979,121.876014 29.9802971,116.481932 35.4575526,112.041962 C40.6785896,107.809687 50.2602808,103.764005 69.3830704,103.764005 L69.3830704,103.764005 Z" id="Rectangle" stroke="#7DA76E" stroke-width="30" fill="#203925" stroke-linejoin="round"></path>
    </g>
</svg>