<?xml version="1.0" encoding="UTF-8"?>
<svg width="300px" height="300px" viewBox="0 0 300 300" version="1.1" xmlns="http://www.w3.org/2000/svg" xmlns:xlink="http://www.w3.org/1999/xlink">
    <title>folder-light</title>
    <defs>
        <path d="M50,93.0185838 C50,75.4790633 50,59.764005 78.0355828,59.764005 C92.4184885,59.764005 97.6042525,59.764005 117.103392,59.764005 C149.998814,59.764005 143.660506,93.0185838 166.241041,93.0185838 C190.82736,93.0185838 215.41368,93.0185838 240,93.0185838 C245.522847,93.0185838 250,97.4957363 250,103.018584 L250,229.764005 C250,235.286852 245.522847,239.764005 240,239.764005 L60,239.764005 C54.4771525,239.764005 50,235.286852 50,229.764005 C50,184.182198 50,138.600391 50,93.0185838 Z" id="path-1"></path>
    </defs>
    <g id="folder-light" stroke="none" stroke-width="1" fill="none" fill-rule="evenodd" stroke-linejoin="round">
        <g id="Rectangle">
            <use fill="#CFF0F9" fill-rule="evenodd" xlink:href="#path-1"></use>
            <path stroke="#3778B7" stroke-width="30" d="M117.103392,44.764005 C142.237347,44.764005 151.640522,57.8983395 159.715822,70.7373606 C160.147639,71.4239119 160.50035,72.2726641 160.872835,73.1453992 L161.046515,73.5493997 C162.013439,75.7752322 163.205808,78.0185838 166.241041,78.0185838 L166.241041,78.0185838 L240,78.0185838 C246.903559,78.0185838 253.153559,80.8168041 257.67767,85.3409143 C262.20178,89.8650245 265,96.1150245 265,103.018584 L265,103.018584 L265,229.764005 C265,236.667564 262.20178,242.917564 257.67767,247.441674 C253.153559,251.965785 246.903559,254.764005 240,254.764005 L240,254.764005 L60,254.764005 C53.0964406,254.764005 46.8464406,251.965785 42.3223305,247.441674 C37.7982203,242.917564 35,236.667564 35,229.764005 L35,229.764005 L35,93.0177838 L35.0007644,91.4293889 C35.0204532,77.477363 36.9269544,65.3712042 44.2830823,57.0582629 C50.2303793,50.3373994 59.8290941,44.764005 78.0355828,44.764005 L78.0355828,44.764005 Z"></path>
            <path stroke="#FFFFFF" stroke-width="20" d="M117.103392,69.764005 C129.397459,69.764005 133.856576,76.5195786 137.688312,82.6619395 L137.97824,83.1271493 L137.97824,83.1271493 L138.266458,83.5892836 C138.362323,83.7427361 138.45802,83.8955564 138.553666,84.047625 C145.318924,94.8037939 152.131945,103.018584 166.241041,103.018584 L166.241041,103.018584 L240,103.018584 L240,229.764005 L60,229.764005 L60,93.0191172 L60.0000256,92.4999173 L60.0003214,91.0401035 C59.9975042,90.2005308 59.9834784,89.3603356 59.9689263,88.5245735 L59.9545943,87.6904765 C59.8654394,82.2808848 59.904487,77.129794 63.0053449,73.6256067 C65.6537202,70.6327566 70.624683,69.764005 78.0355828,69.764005 L78.0355828,69.764005 Z" stroke-linejoin="square"></path>
        </g>
    </g>
</svg>