<?xml version="1.0" encoding="UTF-8"?>
<svg width="300px" height="300px" viewBox="0 0 300 300" version="1.1" xmlns="http://www.w3.org/2000/svg" xmlns:xlink="http://www.w3.org/1999/xlink">
    <title>folder-expanded</title>
    <defs>
        <rect id="path-1" x="82" y="61" width="136" height="116" rx="20"></rect>
        <path d="M42.8425443,141.118472 C40.0706582,129.328016 37.587104,118.764005 69.3830704,118.764005 C85.6951403,118.764005 91.5764653,118.764005 113.691004,118.764005 C150.998655,118.764005 144.143364,141.118472 168.565896,141.118472 C195.157834,141.118472 221.749772,141.118472 248.34171,141.118472 C254.315081,141.118472 258.449902,144.128113 257.57709,147.840694 L237.546675,233.041783 C236.673863,236.754364 232.162238,239.764005 227.469679,239.764005 L74.5303215,239.764005 C69.8377618,239.764005 65.3261366,236.754364 64.4533246,233.041783 C57.2497312,202.400679 50.0461377,171.759575 42.8425443,141.118472 Z" id="path-2"></path>
    </defs>
    <g id="folder-expanded" stroke="none" stroke-width="1" fill="none" fill-rule="evenodd">
        <g id="Rectangle">
            <use fill="#FFF5D6" fill-rule="evenodd" xlink:href="#path-1"></use>
            <rect stroke="#B07731" stroke-width="30" x="67" y="46" width="166" height="146" rx="20"></rect>
            <rect stroke="#FFFFFF" stroke-width="15" stroke-linejoin="square" x="89.5" y="68.5" width="121" height="101" rx="20"></rect>
        </g>
        <g id="Rectangle" stroke-linejoin="round">
            <use fill="#CFF0F9" fill-rule="evenodd" xlink:href="#path-2"></use>
            <path stroke="#3778B7" stroke-width="30" d="M113.691004,103.764005 C140.144166,103.764005 149.505599,112.543873 157.695597,120.393969 L158.195698,120.873342 C160.774202,123.344036 162.91687,126.118472 168.565896,126.118472 L168.565896,126.118472 L248.34171,126.118472 C255.112179,126.118472 260.629515,128.24878 264.354088,130.959812 C267.587313,133.313203 269.801766,136.236496 271.135656,139.328823 C272.721454,143.005144 273.175208,147.036051 272.178993,151.27354 L272.178993,151.27354 L252.148578,236.474628 C250.919342,241.70329 247.513776,246.771871 242.264706,250.273451 C238.095291,253.054809 232.831962,254.764005 227.469679,254.764005 L227.469679,254.764005 L74.5303215,254.764005 C69.1680379,254.764005 63.9047086,253.054809 59.7352936,250.273451 C54.4862242,246.771871 51.0806577,241.70329 49.8514216,236.474628 L49.8514216,236.474628 L28.2394697,144.54633 L28.0726427,143.835628 C26.742549,138.153008 25.944029,132.697914 26.5762986,127.95013 C27.3851979,121.876014 29.9802971,116.481932 35.4575526,112.041962 C40.6785896,107.809687 50.2602808,103.764005 69.3830704,103.764005 L69.3830704,103.764005 Z"></path>
            <path stroke="#FFFFFF" stroke-width="20" d="M113.691004,128.764005 C128.748676,128.764005 134.821868,133.236448 139.654241,137.743446 L140.014463,138.081466 C140.312911,138.363088 140.607269,138.644412 140.899426,138.924353 C147.778572,145.515872 154.127535,151.118472 168.565896,151.118472 L168.565896,151.118472 L246.533,151.118 L228.072883,229.643842 C227.931759,229.700533 227.780779,229.739779 227.625789,229.755859 L227.469679,229.764005 L74.5303215,229.764005 C74.320969,229.764005 74.115282,229.71943 73.9271167,229.643842 L73.9271167,229.643842 L52.5779273,138.833233 L52.4137964,138.134026 C51.8511573,135.729711 51.1037727,133.409852 51.3453968,131.348787 C54.196488,129.179864 59.9596678,128.764005 69.3830704,128.764005 Z" stroke-linejoin="square"></path>
        </g>
    </g>
</svg>